<?xml version="1.0" encoding="iso-8859-1"?>
<!-- Generator: Adobe Illustrator 16.0.0, SVG Export Plug-In . SVG Version: 6.00 Build 0)  -->
<!DOCTYPE svg PUBLIC "-//W3C//DTD SVG 1.1//EN" "http://www.w3.org/Graphics/SVG/1.1/DTD/svg11.dtd">
<svg version="1.1" id="Capa_1" xmlns="http://www.w3.org/2000/svg" xmlns:xlink="http://www.w3.org/1999/xlink" x="0px" y="0px"
	 width="538.561px" height="538.56px" viewBox="0 0 538.561 538.56" style="enable-background:new 0 0 538.561 538.56;"
	 xml:space="preserve">
<g>
	<g>
		<path d="M507.959,311.64c-4.549,1.235-9.33,1.945-14.279,1.945c-11.824,0-22.996-3.742-32.057-10.443
			c-9.064,6.701-20.234,10.443-32.057,10.443c-11.824,0-22.996-3.742-32.057-10.443c-9.064,6.701-20.232,10.443-32.057,10.443
			s-22.996-3.742-32.057-10.443c-9.064,6.701-20.232,10.443-32.057,10.443s-22.996-3.742-32.057-10.443
			c-9.061,6.701-20.232,10.443-32.056,10.443c-11.824,0-22.993-3.742-32.057-10.443c-9.061,6.701-20.233,10.443-32.057,10.443
			s-22.993-3.742-32.057-10.443c-9.067,6.701-20.236,10.443-32.06,10.443s-22.993-3.742-32.057-10.443
			c-9.061,6.701-20.233,10.443-32.057,10.443c-4.954,0-9.731-0.71-14.281-1.945v48.356h477.36V311.64H507.959z"/>
		<path d="M30.6,471.176c0,0.872,0.117,1.716,0.257,2.549h476.846c0.141-0.833,0.256-1.677,0.256-2.549v-95.88H30.6V471.176z"/>
		<path d="M30.6,295.593c4.407,1.726,9.223,2.692,14.281,2.692c13.568,0,25.425-6.873,32.057-17.145
			c6.634,10.271,18.491,17.145,32.06,17.145c13.568,0,25.425-6.873,32.057-17.145c6.631,10.272,18.488,17.145,32.056,17.145
			c13.568,0,25.426-6.873,32.057-17.145c6.631,10.271,18.489,17.145,32.057,17.145c13.568,0,25.426-6.873,32.057-17.145
			c6.63,10.272,18.488,17.145,32.056,17.145s25.426-6.873,32.057-17.145c6.631,10.272,18.488,17.145,32.057,17.145
			s25.426-6.873,32.057-17.145c6.631,10.272,18.488,17.145,32.057,17.145s25.426-6.873,32.057-17.145
			c6.631,10.272,18.488,17.145,32.057,17.145c5.059,0,9.875-0.967,14.281-2.692c13.715-5.374,23.385-18.231,23.385-33.262
			c0-1.506-0.129-2.98-0.318-4.44c0.199-0.759,0.318-1.539,0.318-2.341v-46.108c0-6.702-7.289-12.136-16.279-12.136H288.656v-7.65
			v-7.65v-30.921c0-8.449-6.852-15.3-15.301-15.3h-8.161c-8.449,0-15.3,6.851-15.3,15.3v30.921v7.65v7.65h-226.4
			c-8.99,0-16.279,5.432-16.279,12.136v46.111c0,0.802,0.119,1.582,0.318,2.341c-0.19,1.457-0.318,2.935-0.318,4.44
			C7.215,277.359,16.885,290.219,30.6,295.593z"/>
		<path d="M523.26,489.025H15.3c-8.449,0-15.3,8.617-15.3,19.247v1.282c0,10.631,6.851,19.247,15.3,19.247h507.96
			c8.449,0,15.301-8.616,15.301-19.247v-1.282C538.561,497.645,531.709,489.025,523.26,489.025z"/>
		<path d="M272.34,126.097c0.576,0.021,1.154,0.092,1.719-0.024c17.826-3.685,35.094-27.452,31.455-48.517
			c-3.369-19.51-17.531-27.666-25.727-41.895c-3.396-5.89-5.17-13.779-3.91-21.515c0.816-5.003-0.064-5.79-3.473-2.038
			c-8.752,9.624-18.667,22.274-23.513,32.375c-5.548,11.27-6.071,19.324-2.843,31.377c0.823,3.011,1.671,5.343,2.781,7.656
			c1.953,4.061-0.177,7.252-4.905,5.417c-2.35-0.912-4.511-2.154-6.328-3.623c-3.944-3.186-5.447-3.204-4.367,1.747
			C237.18,105.175,253.741,125.377,272.34,126.097z"/>
	</g>
</g>
<g>
</g>
<g>
</g>
<g>
</g>
<g>
</g>
<g>
</g>
<g>
</g>
<g>
</g>
<g>
</g>
<g>
</g>
<g>
</g>
<g>
</g>
<g>
</g>
<g>
</g>
<g>
</g>
<g>
</g>
</svg>
